<mxfile host="app.diagrams.net" modified="2024-05-25T15:31:58.115Z" agent="Mozilla/5.0 (Macintosh; Intel Mac OS X 10_15_7) AppleWebKit/605.1.15 (KHTML, like Gecko) Version/15.5 Safari/605.1.15" version="24.4.8" etag="ywThxtMnMRDyaNkh0cnS" type="github">
  <diagram name="Страница — 1" id="NsXSBmW_2q24yS2YPJ1M">
    <mxGraphModel>
      <root>
        <mxCell id="0" />
        <mxCell id="1" parent="0" />
      </root>
    </mxGraphModel>
  </diagram>
</mxfile>
